<?xml version="1.0" encoding="UTF-8"?>
<svg id="Layer_1" xmlns="http://www.w3.org/2000/svg" viewBox="0 0 500 500">
  <defs>
    <style>
      .cls-1 {
        fill: #010101;
      }

      .cls-2 {
        fill: #27a205;
      }

      .cls-3 {
        fill: #176301;
      }

      .cls-4 {
        fill: #8901d2;
      }
    </style>
  </defs>
  <path class="cls-1" d="M250.21,60.35c22.51.06,44.31,4.08,65.37,11.94,15.32,5.72,29.68,13.39,43.05,22.73,15.52,10.84,28.92,24,40.42,39.11,7.36,9.67,13.63,19.93,19,30.82,6.51,13.19,11.1,27,14.65,41.25,3.03,12.17,4.35,24.49,4.8,36.98.49,13.59-.69,27.05-3.13,40.39-2.54,13.85-6.71,27.24-12.25,40.19-4.91,11.48-11.34,22.11-18.19,32.52-5.77,8.76-12.44,16.72-19.84,24.11-3.76,3.76-7.38,7.68-11.39,11.16-3.85,3.34-8.1,6.22-12.19,9.28-10.42,7.8-21.49,14.51-33.37,19.84-11.24,5.04-22.91,8.81-34.95,11.4-8.87,1.9-17.79,3.33-26.84,4.16-7.34.68-14.68,1.1-22.02.77-7.01-.31-14.02-1.02-21-1.81-12.87-1.45-25.3-4.88-37.47-9.15-22.9-8.03-43.47-20.25-61.66-36.22-16.89-14.82-30.62-32.3-41.21-52.2-8.24-15.48-14.46-31.68-17.88-48.89-1.87-9.4-3.1-18.89-3.8-28.47-.69-9.53-.36-19,.42-28.49.82-9.97,3.05-19.69,5.38-29.41,2.98-12.43,7.43-24.32,12.75-35.87,5.69-12.36,12.96-23.8,21.33-34.56,4.71-6.05,9.95-11.55,15.29-17.02,10.38-10.65,22.02-19.63,34.69-27.41,15.39-9.44,31.83-16.28,49.19-21.04,9.8-2.69,19.78-4.45,29.92-5.2,6.97-.52,13.96-.47,20.93-.89,0,.13,0-.13,0,0ZM253.45,68.27c.35.78.56,1.29.79,1.78,2.25,4.81,4.69,9.54,6.69,14.45,2.81,6.91,5.26,13.97,7.18,21.2,2.31,8.71,4.6,17.43,5.81,26.36.8,5.9,1.39,11.86,1.69,17.8.26,5.1,0,10.23-.07,15.34-.04,2.63-.03,5.28-.31,7.89-.51,4.7-1.24,9.37-1.86,14.06-1.41,10.59-4.74,20.68-8.04,30.78-.6,1.83-1.33,3.61-2.01,5.42.09.08.17.16.26.24,36.87-43.06,83.66-65.48,140.46-67.51-6.88-11.37-14.77-21.72-23.83-31.16-19.75-20.58-43.26-35.48-69.86-45.51-18.22-6.87-37.12-10.56-56.9-11.14ZM94.3,154.78c.55.08.93.17,1.3.2,4.61.35,9.23.53,13.82,1.06,13.48,1.56,26.74,4.11,39.55,8.76,9.27,3.37,18.58,6.65,27.24,11.43,4.82,2.66,9.51,5.57,14.22,8.41,9.58,5.78,18.18,12.81,26,20.78,4.94,5.03,9.59,10.33,14.39,15.5.76.82,1.59,1.59,2.38,2.39l.24-.21c-10.09-25.37-12.94-51.78-11.03-78.8,1.91-27.05,9.59-52.41,23.3-76.08-.87,0-1.39,0-1.91,0-7.58.16-15.09.91-22.6,1.99-12.58,1.81-24.66,5.52-36.52,9.85-7.48,2.73-14.71,6.18-21.57,10.31-5.27,3.17-10.62,6.2-15.82,9.47-9.15,5.77-17.15,12.99-25.03,20.33-5.66,5.28-10.66,11.19-15.45,17.25-4.03,5.1-7.7,10.47-11.52,15.73-.34.47-.6.99-.99,1.64ZM67.99,256.11c.2,3.08.3,6.18.62,9.25.36,3.43.83,6.85,1.39,10.26.78,4.74,1.53,9.49,2.58,14.17,2.05,9.14,4.81,18.08,8.54,26.69,1.88,4.35,3.53,8.84,5.8,12.98,4.67,8.54,9.52,16.98,15.17,24.93,4.97,6.99,10.3,13.7,16.32,19.82,3.53,3.58,7.05,7.21,10.92,10.41,6.01,4.97,12.08,9.94,18.56,14.27,8.56,5.72,17.67,10.54,27.03,14.89,8.49,3.95,17.28,7.01,26.33,9.3,5.89,1.49,11.85,2.72,17.81,3.89,3.46.68,6.99,1.04,10.49,1.48,2.05.26,4.11.43,6.17.54,1.66.09,3.33.02,5.32.02-29-29.09-57.63-57.95-86.41-86.66-28.81-28.74-58.01-57.09-86.66-86.25ZM426.32,253.73c-.05-.13-.1-.27-.15-.4-3.84.22-7.73.17-11.52.73-7.23,1.07-14.46,2.29-21.61,3.79-18.81,3.94-36.43,10.99-52.84,20.99-7.7,4.69-15.2,9.72-22.08,15.58-4.16,3.55-8.3,7.13-12.22,10.94-3.15,3.05-5.98,6.43-8.9,9.71-6.36,7.13-11.94,14.83-17.03,22.94-6.37,10.15-11.52,20.85-15.74,32.04-2.46,6.53-4.38,13.21-6.17,19.95-1.77,6.63-3.17,13.3-3.75,20.14-.18,2.18-.47,4.35-.65,6.53-.17,2.07-.28,4.14-.43,6.48,2.26-2.16,4.31-4.1,6.33-6.07,4.18-4.08,8.34-8.17,12.5-12.26,4.25-4.17,8.5-8.34,12.75-12.52,4.22-4.14,8.45-8.29,12.67-12.43,4.17-4.09,8.33-8.17,12.5-12.26,4.14-4.06,8.28-8.12,12.42-12.18,7.88-7.72,15.76-15.44,23.64-23.16,3.71-3.64,7.43-7.27,11.14-10.9,7.4-7.24,14.8-14.48,22.2-21.72,3.54-3.47,7.09-6.93,10.63-10.39,7.6-7.44,15.19-14.88,22.8-22.31,3.11-3.05,6.24-6.08,9.36-9.12,1.39-1.35,2.76-2.72,4.14-4.08ZM429.27,258.96c-.5.47-.82.75-1.12,1.05-2.69,2.62-5.38,5.24-8.07,7.86-3.54,3.45-7.09,6.89-10.62,10.36-4.51,4.42-9,8.86-13.5,13.28-4.93,4.85-9.86,9.69-14.78,14.55-7.51,7.41-15.02,14.83-22.52,22.25-2.47,2.44-4.9,4.91-7.37,7.35-2.39,2.35-4.82,4.67-7.21,7.02-6.44,6.34-12.86,12.69-19.3,19.03-3.99,3.93-8.02,7.81-11.96,11.77-2.53,2.55-4.87,5.28-7.42,7.81-4.74,4.69-9.58,9.28-14.35,13.94-4.38,4.27-8.73,8.56-13.09,12.85-6.78,6.68-13.55,13.36-20.32,20.04-.21.2-.37.46-.76.96,2.77-.2,5.23-.33,7.67-.57,1.97-.19,3.93-.53,5.9-.77,3.51-.43,7.06-.62,10.52-1.31,6.11-1.21,12.2-2.6,18.24-4.14,7.86-2,15.41-4.89,22.74-8.35,7.72-3.65,15.47-7.28,22.6-12.02,5.14-3.42,10.19-6.98,15.18-10.61,3.28-2.39,6.49-4.9,9.5-7.61,2.81-2.53,5.38-5.35,7.96-8.14,3.62-3.92,7.3-7.81,10.68-11.94,3.78-4.62,7.51-9.32,10.81-14.28,7.84-11.78,14.42-24.26,19.61-37.44,1.49-3.78,2.95-7.59,4-11.5,1.5-5.6,2.69-11.28,3.86-16.96.72-3.53,1.18-7.12,1.7-10.69.28-1.92.46-3.86.66-5.8.26-2.56.49-5.13.76-8.01ZM74.39,252.85c.25.3.41.52.6.71,6.24,6.47,12.43,13,18.75,19.39,5.14,5.2,10.48,10.2,15.68,15.34,5.46,5.4,10.89,10.83,16.3,16.29,1.69,1.7,3.2,3.57,4.9,5.26,2.52,2.5,5.19,4.86,7.71,7.37,4.68,4.65,9.27,9.39,13.93,14.05,3.22,3.22,6.53,6.36,9.74,9.6,8.58,8.67,17.09,17.4,25.69,26.05,4.31,4.33,8.8,8.49,13.14,12.79,3.24,3.2,6.35,6.53,9.58,9.75,3.26,3.24,6.61,6.39,9.88,9.62,7.84,7.76,15.66,15.55,23.5,23.33.17.16.39.28.66.47-.07-.62-.13-1.09-.18-1.56-.42-4-.6-8.03-1.29-11.99-1.93-11.18-4.35-22.24-8.07-33-3.33-9.63-7.06-19.1-11.87-28.07-7.86-14.67-17.65-27.99-29.12-40.07-4.83-5.08-10.25-9.49-15.59-14-7.9-6.67-16.35-12.48-25.5-17.31-9.32-4.91-18.74-9.58-28.73-13.03-8.93-3.08-18.03-5.48-27.24-7.55-7.38-1.66-14.82-2.75-22.48-3.44ZM251.22,396.17c7.47-35.67,23.14-67,48.79-92.79,25.58-25.72,55.97-43.25,91.77-50.91h-140.56v143.7ZM105.11,252.38c35.3,8.29,65.94,24.68,91.56,50.61,25.66,25.97,41.63,56.88,48.93,92.03v-142.64H105.11ZM94.78,161.68c.41.79.62,1.25.88,1.68,5.32,8.71,11.65,16.67,18.63,24.05,5.04,5.33,10.36,10.44,15.92,15.22,5.55,4.77,11.38,9.26,17.42,13.38,5.29,3.6,11.01,6.6,16.62,9.71,12.1,6.71,25.09,11.21,38.31,15.08,7.1,2.08,14.32,3.64,21.7,4.33,3.96.37,7.92.68,11.89.92,1.99.12,3.99.02,6.2.02-18.02-26.57-40.18-48.28-68.7-63-24.65-12.72-50.77-20.09-78.88-21.39ZM249.37,73.76c-.16.23-.26.35-.33.48-6.69,11.78-11.79,24.21-15.05,37.36-1.33,5.36-2.45,10.78-3.43,16.21-.76,4.22-1.24,8.5-1.68,12.77-.49,4.67-.96,9.36-1.15,14.05-.32,8.03.29,16.02,1.38,23.97.58,4.22,1.04,8.45,1.76,12.64,1.46,8.49,3.71,16.77,6.61,24.89,2.79,7.81,5.97,15.46,9.6,22.93.26.54.62,1.03,1.03,1.71.4-.61.67-.96.88-1.33,4.67-8.52,8.67-17.34,11.34-26.69,1.9-6.65,3.35-13.43,5.28-20.07,3.02-10.44,4.78-21.02,4.54-31.92-.11-5.15-.1-10.31-.23-15.46-.06-2.39-.15-4.8-.53-7.15-.92-5.65-1.85-11.31-3.07-16.89-2.27-10.34-4.6-20.67-8.85-30.44-2.49-5.74-4.7-11.61-8.09-17.07ZM430.78,246.82c-.26-4.05-.36-8.07-.8-12.06-.68-6.1-1.34-12.23-2.49-18.25-1.21-6.32-2.64-12.64-4.62-18.76-2.35-7.27-5.26-14.37-8.17-21.44-1.58-3.84-3.64-7.48-5.54-11.18-.53-1.03-.92-.95-1.53.02-1.45,2.3-2.81,4.66-4.43,6.83-3.26,4.36-6.65,8.63-10.03,12.89-1.92,2.42-3.81,4.87-5.93,7.1-5.52,5.8-11.29,11.36-17.53,16.38-4.43,3.57-8.81,7.23-13.53,10.37-5.72,3.8-11.73,7.18-17.71,10.59-6.27,3.58-12.75,6.71-19.54,9.29-6.66,2.53-13.38,4.74-20.28,6.47-1.61.4-3.2.86-4.8,1.29.03.15.06.3.09.45h136.84ZM203.93,246.96c-.66-.33-1.05-.6-1.48-.72-3.34-.94-6.73-1.72-10.02-2.8-6.31-2.07-12.68-4.05-18.82-6.56-5.38-2.2-10.54-4.97-15.7-7.68-3.91-2.06-7.79-4.23-11.45-6.69-5.11-3.43-10.05-7.13-15-10.8-5.17-3.84-10.01-8.08-14.52-12.68-3.48-3.56-6.86-7.22-10.2-10.9-2.1-2.32-4.19-4.67-6.05-7.18-3.81-5.14-7.5-10.37-11.18-15.61-.65-.92-.9-.78-1.32.09-1.44,3-2.93,5.98-4.37,8.97-3.7,7.68-6.8,15.61-9.12,23.81-1.55,5.47-2.98,10.98-4.14,16.54-1.09,5.23-1.88,10.53-2.58,15.83-.69,5.14-.79,10.32-.38,15.5.08,1.02.52,1.12,1.36,1.12,44.35-.02,88.7-.01,133.05-.02.55,0,1.11-.11,1.93-.21ZM401.42,162.77c-1.06,0-1.7-.03-2.33,0-3.18.15-6.37.21-9.54.5-3.67.34-7.36.67-10.97,1.39-4.75.94-9.42,2.28-14.14,3.38-12.4,2.9-24.14,7.62-35.69,12.87-9.18,4.17-17.7,9.47-25.88,15.37-8.46,6.11-16.37,12.83-23.8,20.13-1.71,1.68-3.37,3.4-4.97,5.19-2.31,2.58-4.64,5.16-6.78,7.88-2.99,3.82-5.83,7.77-8.7,11.69-1.16,1.59-2.24,3.25-3.58,5.21,1.5-.13,2.62-.24,3.75-.32,3.41-.25,6.84-.33,10.23-.75,4.8-.6,9.63-1.19,14.34-2.25,6.7-1.51,13.36-3.27,19.94-5.25,10.88-3.27,21.24-7.82,31.03-13.62,10.53-6.24,21.07-12.47,30.4-20.49,3.99-3.43,7.99-6.85,11.82-10.45,2.55-2.4,4.85-5.07,7.21-7.67,1.66-1.83,3.32-3.67,4.84-5.61,2.81-3.57,5.53-7.2,8.25-10.83,1.5-2,2.9-4.06,4.56-6.38Z"/>
  <path class="cls-3" d="M67.99,256.11c28.64,29.15,57.84,57.51,86.66,86.25,28.78,28.71,57.41,57.56,86.41,86.66-1.99,0-3.66.07-5.32-.02-2.06-.11-4.12-.29-6.17-.54-3.5-.44-7.03-.8-10.49-1.48-5.96-1.17-11.92-2.4-17.81-3.89-9.05-2.29-17.84-5.35-26.33-9.3-9.36-4.35-18.47-9.17-27.03-14.89-6.47-4.33-12.54-9.3-18.56-14.27-3.87-3.2-7.39-6.83-10.92-10.41-6.02-6.12-11.35-12.83-16.32-19.82-5.65-7.95-10.5-16.4-15.17-24.93-2.27-4.14-3.92-8.63-5.8-12.98-3.73-8.61-6.48-17.55-8.54-26.69-1.05-4.68-1.8-9.43-2.58-14.17-.56-3.4-1.04-6.83-1.39-10.26-.32-3.07-.42-6.17-.62-9.25Z"/>
  <path class="cls-2" d="M426.32,253.73c-1.38,1.36-2.76,2.72-4.14,4.08-3.12,3.04-6.25,6.08-9.36,9.12-7.6,7.44-15.2,14.88-22.8,22.31-3.54,3.47-7.09,6.93-10.63,10.39-7.4,7.24-14.8,14.48-22.2,21.72-3.71,3.63-7.43,7.27-11.14,10.9-7.88,7.72-15.76,15.44-23.64,23.16-4.14,4.06-8.28,8.12-12.42,12.18-4.17,4.09-8.33,8.17-12.5,12.26-4.22,4.14-8.45,8.29-12.67,12.43-4.25,4.17-8.5,8.34-12.75,12.52-4.17,4.09-8.33,8.18-12.5,12.26-2.02,1.97-4.08,3.91-6.33,6.07.15-2.34.25-4.42.43-6.48.18-2.18.47-4.35.65-6.53.58-6.84,1.98-13.51,3.75-20.14,1.8-6.73,3.71-13.42,6.17-19.95,4.22-11.18,9.37-21.89,15.74-32.04,5.09-8.11,10.67-15.8,17.03-22.94,2.92-3.28,5.76-6.66,8.9-9.71,3.92-3.8,8.06-7.39,12.22-10.94,6.88-5.86,14.38-10.89,22.08-15.58,16.4-10,34.03-17.05,52.84-20.99,7.16-1.5,14.38-2.72,21.61-3.79,3.79-.56,7.68-.51,11.52-.73.05.13.1.27.15.4Z"/>
  <path class="cls-3" d="M429.27,258.96c-.27,2.88-.5,5.44-.76,8.01-.2,1.93-.38,3.87-.66,5.8-.52,3.57-.98,7.16-1.7,10.69-1.16,5.68-2.36,11.36-3.86,16.96-1.05,3.91-2.51,7.72-4,11.5-5.19,13.18-11.77,25.66-19.61,37.44-3.3,4.96-7.03,9.66-10.81,14.28-3.38,4.13-7.06,8.01-10.68,11.94-2.57,2.79-5.14,5.61-7.96,8.14-3.01,2.71-6.23,5.22-9.5,7.61-4.99,3.64-10.04,7.2-15.18,10.61-7.13,4.74-14.88,8.37-22.6,12.02-7.33,3.46-14.88,6.35-22.74,8.35-6.04,1.54-12.13,2.93-18.24,4.14-3.46.69-7.01.88-10.52,1.31-1.97.24-3.93.58-5.9.77-2.45.24-4.9.37-7.67.57.4-.51.56-.76.76-.96,6.77-6.68,13.54-13.37,20.32-20.04,4.36-4.29,8.71-8.58,13.09-12.85,4.78-4.66,9.62-9.25,14.35-13.94,2.55-2.53,4.89-5.26,7.42-7.81,3.94-3.97,7.98-7.85,11.96-11.77,6.44-6.34,12.86-12.69,19.3-19.03,2.39-2.35,4.82-4.66,7.21-7.02,2.47-2.43,4.9-4.91,7.37-7.35,7.5-7.42,15.01-14.84,22.52-22.25,4.92-4.86,9.86-9.7,14.78-14.55,4.5-4.43,8.99-8.86,13.5-13.28,3.53-3.46,7.08-6.91,10.62-10.36,2.69-2.62,5.38-5.24,8.07-7.86.31-.3.62-.58,1.12-1.05Z"/>
  <path class="cls-2" d="M74.39,252.85c7.66.69,15.09,1.78,22.48,3.44,9.21,2.08,18.31,4.47,27.24,7.55,9.99,3.45,19.41,8.11,28.73,13.03,9.15,4.82,17.6,10.63,25.5,17.31,5.34,4.51,10.76,8.92,15.59,14,11.47,12.08,21.26,25.4,29.12,40.07,4.8,8.97,8.53,18.44,11.87,28.07,3.73,10.75,6.14,21.82,8.07,33,.68,3.95.87,7.99,1.29,11.99.05.47.11.94.18,1.56-.28-.19-.5-.31-.66-.47-7.83-7.77-15.65-15.56-23.5-23.33-3.27-3.23-6.62-6.38-9.88-9.62-3.23-3.22-6.34-6.55-9.58-9.75-4.35-4.3-8.83-8.46-13.14-12.79-8.6-8.64-17.11-17.38-25.69-26.05-3.21-3.24-6.52-6.37-9.74-9.6-4.66-4.67-9.26-9.4-13.93-14.05-2.52-2.51-5.19-4.87-7.71-7.37-1.7-1.69-3.21-3.56-4.9-5.26-5.41-5.45-10.83-10.89-16.3-16.29-5.2-5.14-10.54-10.15-15.68-15.34-6.32-6.39-12.51-12.92-18.75-19.39-.19-.19-.35-.41-.6-.71Z"/>
  <path class="cls-4" d="M251.22,396.17v-143.7h140.56c-35.8,7.66-66.19,25.19-91.77,50.91-25.65,25.79-41.33,57.12-48.79,92.79Z"/>
  <path class="cls-4" d="M105.11,252.38h140.5v142.64c-7.3-35.15-23.27-66.06-48.93-92.03-25.62-25.93-56.26-42.31-91.56-50.61Z"/>
  <path class="cls-3" d="M94.78,161.68c28.11,1.3,54.23,8.67,78.88,21.39,28.53,14.72,50.68,36.42,68.7,63-2.21,0-4.21.1-6.2-.02-3.97-.24-7.93-.55-11.89-.92-7.38-.7-14.59-2.25-21.7-4.33-13.22-3.87-26.21-8.37-38.31-15.08-5.61-3.11-11.33-6.11-16.62-9.71-6.05-4.12-11.87-8.61-17.42-13.38-5.56-4.78-10.88-9.89-15.92-15.22-6.99-7.38-13.32-15.34-18.63-24.05-.26-.43-.47-.89-.88-1.68Z"/>
  <path class="cls-2" d="M249.37,73.76c3.38,5.46,5.59,11.33,8.09,17.07,4.24,9.77,6.58,20.11,8.85,30.44,1.23,5.59,2.16,11.24,3.07,16.89.38,2.35.47,4.76.53,7.15.13,5.15.12,10.3.23,15.46.24,10.89-1.52,21.48-4.54,31.92-1.92,6.64-3.38,13.42-5.28,20.07-2.67,9.36-6.67,18.17-11.34,26.69-.21.38-.47.72-.88,1.33-.41-.68-.77-1.18-1.03-1.71-3.63-7.46-6.81-15.11-9.6-22.93-2.9-8.11-5.15-16.4-6.61-24.89-.72-4.19-1.19-8.43-1.76-12.64-1.09-7.96-1.7-15.95-1.38-23.97.19-4.69.66-9.37,1.15-14.05.45-4.27.92-8.55,1.68-12.77.98-5.43,2.1-10.86,3.43-16.21,3.27-13.15,8.36-25.58,15.05-37.36.08-.13.18-.26.33-.48Z"/>
  <path class="cls-3" d="M401.42,162.77c-1.65,2.32-3.06,4.39-4.56,6.38-2.72,3.63-5.45,7.26-8.25,10.83-1.53,1.94-3.18,3.78-4.84,5.61-2.36,2.6-4.66,5.27-7.21,7.67-3.83,3.6-7.83,7.02-11.82,10.45-9.33,8.02-19.87,14.25-30.4,20.49-9.79,5.8-20.15,10.35-31.03,13.62-6.58,1.98-13.24,3.73-19.94,5.25-4.71,1.06-9.54,1.65-14.34,2.25-3.39.42-6.82.51-10.23.75-1.13.08-2.25.19-3.75.32,1.35-1.96,2.42-3.62,3.58-5.21,2.87-3.92,5.7-7.87,8.7-11.69,2.13-2.73,4.47-5.3,6.78-7.88,1.6-1.78,3.26-3.51,4.97-5.19,7.43-7.3,15.34-14.02,23.8-20.13,8.18-5.91,16.7-11.2,25.88-15.37,11.54-5.25,23.29-9.97,35.69-12.87,4.72-1.11,9.39-2.44,14.14-3.38,3.61-.71,7.3-1.05,10.97-1.39,3.17-.29,6.36-.35,9.54-.5.64-.03,1.27,0,2.33,0Z"/>
</svg>