<?xml version='1.0' encoding='utf-8'?>
<svg xmlns="http://www.w3.org/2000/svg" version="1.1" id="Layer_1" x="0px" y="0px" viewBox="0 0 74 74" fill="#3aad09" style="enable-background:new 0 0 74 74;"> <g> <path d="M48.07,45.83l-10.79,8.12c-0.05-2.06-1.74-3.72-3.81-3.72h-8.73c-1.57,0-3.1-0.54-4.32-1.52c-1.49-1.2-3.36-1.86-5.26-1.86 h-3.04c-0.03-1.32-1.1-2.39-2.43-2.39H2.56c-0.36,0-0.65,0.3-0.65,0.65v20.02c0,0.36,0.3,0.65,0.65,0.65h7.13 c1.33,0,2.4-1.07,2.43-2.39h4.46c1.5,0,2.91,0.47,4.1,1.35c1.91,1.43,5.02,2.85,7.05,2.85c0.06,0,0.13,0,0.19,0 c8.25-0.38,24.11-17.01,24.27-17.18c1.05-1.11,1.13-2.79,0.2-4.01C51.35,45.09,49.42,44.82,48.07,45.83z M6.67,63.04 c-0.85,0-1.53-0.69-1.53-1.54c0-0.84,0.68-1.53,1.53-1.53c0.85,0,1.53,0.69,1.53,1.53C8.19,62.35,7.51,63.04,6.67,63.04z M51.09,49.4c-4.31,4.55-16.9,16.42-23.25,16.71c-1.48,0.07-4.33-1.1-6.27-2.55c-1.45-1.08-3.17-1.65-5-1.65h-4.45V48.36h3.03 c1.57,0,3.1,0.54,4.32,1.52c1.49,1.2,3.35,1.86,5.26,1.86h8.73c1.27,0,2.31,1.04,2.31,2.31c0,0.52-0.17,1-0.46,1.39 c-0.05,0.05-0.1,0.1-0.14,0.16c-0.42,0.46-1.03,0.76-1.71,0.76h-9.79c-0.41,0-0.75,0.34-0.75,0.75s0.34,0.75,0.75,0.75h9.79 c1.16,0,2.2-0.52,2.9-1.34l12.6-9.48c0.7-0.52,1.69-0.39,2.22,0.3C51.67,47.96,51.63,48.83,51.09,49.4z"/> <path d="M21.89,29.11c-0.35-0.35-0.91-0.35-1.26,0l-1.03,1.03c-0.35,0.35-0.35,0.91,0,1.26l1.03,1.03 c0.35,0.35,0.91,0.35,1.26,0.01l1.04-1.03c0.35-0.35,0.35-0.92,0-1.27L21.89,29.11z"/> <path d="M34.15,29.56c0.28-0.73,0.28-1.34-0.05-1.67c-0.34-0.34-0.94-0.33-1.67-0.04c-0.31-0.72-0.74-1.16-1.21-1.16 s-0.9,0.44-1.22,1.16c-0.72-0.29-1.33-0.3-1.66,0.04c-0.33,0.33-0.33,0.95-0.05,1.68c-0.71,0.31-1.15,0.72-1.15,1.2 c0,0.48,0.44,0.89,1.15,1.21c-0.28,0.73-0.29,1.34,0.04,1.67c0.34,0.34,0.95,0.33,1.68,0.05c0.31,0.72,0.74,1.15,1.21,1.15 s0.9-0.44,1.21-1.16c0.72,0.3,1.34,0.3,1.68-0.04c0.33-0.33,0.32-0.93,0.03-1.66c0.72-0.32,1.16-0.74,1.16-1.22 C35.3,30.29,34.86,29.87,34.15,29.56z"/> <path d="M41.8,29.11c-0.35-0.35-0.91-0.35-1.26,0l-1.03,1.03c-0.35,0.35-0.35,0.91,0,1.26l1.03,1.03c0.35,0.35,0.91,0.35,1.26,0.01 l1.04-1.03c0.35-0.35,0.35-0.92,0-1.27L41.8,29.11z"/> <path d="M72.09,9.46c0-0.36-0.3-0.65-0.65-0.65l-7.13,0c-1.34,0-2.43,1.09-2.43,2.43v0.09h-3.1c-1.5,0-2.91-0.47-4.1-1.35 c-1.79-1.34-6.08-3.68-8.17-3.59c-3.72,0.17-9.17,3.81-14.28,9.52H17.05c-1.34,0-2.42,1.09-2.42,2.43v1.85c0,0,0,0,0,0h-1.11 c-0.92,0-1.67,0.75-1.67,1.67v17.78c0,0.92,0.75,1.67,1.67,1.67h35.4c0.92,0,1.68-0.75,1.68-1.67v-1.11h1.86 c1.33,0,2.41-1.09,2.41-2.42V25.98c0.02,0.02,0.05,0.03,0.07,0.05c1.49,1.2,3.36,1.86,5.26,1.86h1.7c0.1,1.25,1.14,2.25,2.41,2.25 l7.13,0c0.36,0,0.65-0.3,0.65-0.65L72.09,9.46z M16.13,20.2v-1.85c0-0.52,0.41-0.93,0.92-0.93h15.5c0,0,0.01,0,0.01,0 c0,0,0.01,0,0.01,0h6.47l-1.76,1.76c-0.3,0.3-0.53,0.65-0.7,1.03L16.13,20.2C16.13,20.21,16.13,20.21,16.13,20.2z M47.25,35.54 c-1.35,0-2.44,1.1-2.44,2.45H17.64c0-1.35-1.1-2.45-2.45-2.45V26c1.35,0,2.45-1.1,2.45-2.45h19.35c0.09,0.12,0.18,0.24,0.29,0.35 c0.63,0.63,1.47,0.98,2.36,0.98c0.89,0,1.73-0.35,2.36-0.98l0.36-0.36h2.45c0,1.35,1.09,2.45,2.44,2.45V35.54z M53.37,36.12 c0,0.52-0.4,0.92-0.91,0.92H50.6V21.88c0-0.92-0.76-1.67-1.68-1.67h-3.2l2.81-2.79h3.93c0.5,0,0.91,0.42,0.91,0.93V36.12z M55.88,24.86c-0.32-0.26-0.66-0.48-1.01-0.69v-5.82c0-1.34-1.08-2.43-2.41-2.43h-4.25c-0.21,0-0.4,0.09-0.54,0.24l-6.73,6.69 c-0.69,0.69-1.91,0.7-2.6,0c-0.35-0.35-0.54-0.81-0.54-1.3c0-0.49,0.19-0.95,0.54-1.3l6.75-6.75c0.29-0.29,0.29-0.77,0-1.06 c-0.29-0.29-0.77-0.29-1.06,0l-3.49,3.49h-6.27c4.51-4.78,9.24-7.89,12.31-8.03c1.44-0.06,5.2,1.79,7.21,3.29 c1.45,1.08,3.17,1.65,5,1.65h3.1v13.55H60.2C58.64,26.38,57.1,25.84,55.88,24.86z M67.33,14.62c-0.85,0-1.53-0.69-1.53-1.53 c0-0.85,0.68-1.54,1.53-1.54s1.53,0.69,1.53,1.54C68.86,13.93,68.18,14.62,67.33,14.62z"/> </g> </svg>